# Blender v2.74 (sub 0) OBJ File: ''
# www.blender.org
mtllib ParkingLot.mtl
o 0.003
v 7.000396 6.954995 -8.101343
v 10.000396 6.954995 -8.101345
v 10.000394 6.954995 -11.101345
v -10.999604 6.954995 -8.101334
v -10.999602 6.954995 -2.101334
v -4.999602 6.954995 -2.101339
v -4.999600 6.954995 3.898661
v -1.999601 6.954995 3.898659
v 10.000398 6.954995 -2.101345
v 13.000398 6.954995 -2.101348
v 13.000396 6.954995 -8.101348
v -10.999606 6.954995 -11.101334
v -4.999604 6.954995 -8.101339
v -1.999606 6.954995 -11.101340
v -1.999605 6.954995 -8.101341
v 13.000394 6.954995 -11.101348
v 10.000400 6.954995 3.898655
v 13.000400 6.954995 3.898652
v -10.999600 6.954995 3.898666
v 7.000400 6.954995 3.898657
v -1.999603 6.954995 -2.101341
v -4.999606 6.954995 -11.101339
v 7.000394 6.954995 -11.101343
v 7.000398 6.954995 -2.101343
vn 0.000000 1.000000 0.000000
usemtl color0.003
s 1
f 1//1 2//1 3//1
f 4//1 5//1 6//1
f 6//1 7//1 8//1
f 9//1 10//1 11//1
f 12//1 4//1 13//1
f 14//1 15//1 1//1
f 2//1 11//1 16//1
f 17//1 18//1 10//1
f 6//1 5//1 19//1
f 20//1 17//1 9//1
f 21//1 8//1 20//1
f 1//1 15//1 21//1
f 14//1 22//1 13//1
f 23//1 1//1 3//1
f 13//1 4//1 6//1
f 21//1 6//1 8//1
f 2//1 9//1 11//1
f 22//1 12//1 13//1
f 23//1 14//1 1//1
f 3//1 2//1 16//1
f 9//1 17//1 10//1
f 7//1 6//1 19//1
f 24//1 20//1 9//1
f 24//1 21//1 20//1
f 24//1 1//1 21//1
f 15//1 14//1 13//1
o 2.003
v 10.000396 0.954995 -8.101345
v 7.000396 0.954995 -8.101343
v 7.000398 -2.045005 0.898657
v 10.000399 -2.045005 0.898655
vn 0.000000 0.948700 0.316200
usemtl color2.003
s 1
f 25//2 26//2 27//2
f 28//2 25//2 27//2
o 5.003
v -10.999604 0.954995 -8.101334
v -10.999601 3.954995 0.898666
v -7.999601 3.954995 0.898661
v -7.999604 0.954995 -8.101338
vn 0.000000 0.948700 -0.316200
usemtl color5.003
s 1
f 29//3 30//3 31//3
f 32//3 29//3 31//3
o 4.003
v -1.999602 3.954995 0.898659
v -1.999601 3.954995 3.898659
v 0.700399 3.954995 3.898659
v -10.999606 3.954995 -11.101334
v -13.999606 3.954995 -11.101334
v -13.999602 3.954995 -2.101334
v -13.999601 3.954995 0.898666
v -10.999601 3.954995 0.898666
v -7.999606 3.954995 -11.101338
v -7.999602 3.954995 -2.101339
v -4.999602 3.954995 -2.101339
v -13.999600 3.954995 3.898666
v -1.999603 3.954995 -2.101341
v 0.700397 3.954995 -2.101341
v 0.700394 3.954995 -11.101341
v -10.999600 3.954995 3.898666
v -7.999600 3.954995 3.898661
v 0.700398 3.954995 0.898659
v -10.999602 3.954995 -2.101334
v -4.999602 3.954995 0.898661
v -4.999600 3.954995 3.898661
v -7.999601 3.954995 0.898661
v -1.999606 3.954995 -11.101340
v -4.999606 3.954995 -11.101339
vn 0.000000 1.000000 0.000000
usemtl color4.003
s 1
f 33//4 34//4 35//4
f 36//4 37//4 38//4
f 38//4 39//4 40//4
f 41//4 42//4 43//4
f 40//4 39//4 44//4
f 45//4 46//4 47//4
f 40//4 48//4 49//4
f 33//4 50//4 46//4
f 36//4 51//4 42//4
f 52//4 53//4 34//4
f 43//4 42//4 54//4
f 54//4 49//4 53//4
f 43//4 45//4 55//4
f 50//4 33//4 35//4
f 51//4 36//4 38//4
f 51//4 38//4 40//4
f 56//4 41//4 43//4
f 48//4 40//4 44//4
f 55//4 45//4 47//4
f 54//4 40//4 49//4
f 45//4 33//4 46//4
f 41//4 36//4 42//4
f 33//4 52//4 34//4
f 52//4 43//4 54//4
f 52//4 54//4 53//4
f 56//4 43//4 55//4
o 8.003
v 10.000396 6.954995 -8.101345
v 7.000396 6.954995 -8.101343
v 7.000398 3.954995 0.898657
v 10.000399 3.954995 0.898655
vn 0.000000 0.948700 0.316200
usemtl color8.003
s 1
f 57//5 58//5 59//5
f 60//5 57//5 59//5
o 6.003
v 1.000397 3.954995 -2.101341
v 7.000398 3.954995 -2.101343
v 7.000394 3.954995 -11.101343
v 10.000400 3.954995 3.898655
v 13.000400 3.954995 3.898652
v 13.000399 3.954995 0.898652
v 7.000398 3.954995 0.898657
v 7.000400 3.954995 3.898657
v 10.000398 3.954995 -2.101345
v 10.000399 3.954995 0.898655
v 1.000399 3.954995 3.898659
v 10.000394 3.954995 -11.101345
v 13.000398 3.954995 -2.101348
v 13.000394 3.954995 -11.101348
v 1.000398 3.954995 0.898659
v 1.000394 3.954995 -11.101341
vn 0.000000 1.000000 0.000000
usemtl color6.003
s 1
f 61//6 62//6 63//6
f 64//6 65//6 66//6
f 67//6 68//6 64//6
f 69//6 70//6 66//6
f 71//6 68//6 67//6
f 62//6 69//6 72//6
f 69//6 73//6 74//6
f 75//6 67//6 62//6
f 76//6 61//6 63//6
f 70//6 64//6 66//6
f 70//6 67//6 64//6
f 73//6 69//6 66//6
f 75//6 71//6 67//6
f 63//6 62//6 72//6
f 72//6 69//6 74//6
f 61//6 75//6 62//6
o 3.003
v -7.999602 0.954995 -2.101339
v -7.999600 0.954995 3.898661
v 7.000400 0.954995 3.898657
v -13.999606 0.954995 -11.101334
v -13.999604 0.954995 -8.101334
v -10.999604 0.954995 -8.101334
v 7.000394 0.954995 -11.101343
v 7.000396 0.954995 -8.101343
v 10.000396 0.954995 -8.101345
v 10.000398 0.954995 -2.101345
v 13.000398 0.954995 -2.101348
v 7.000398 0.954995 -2.101343
v 10.000400 0.954995 3.898655
v -13.999602 0.954995 -2.101334
v -13.999600 0.954995 3.898666
v -10.999600 0.954995 3.898666
v 10.000394 0.954995 -11.101345
v 13.000396 0.954995 -8.101348
v -10.999606 0.954995 -11.101334
v -7.999604 0.954995 -8.101338
v 13.000400 0.954995 3.898652
v -7.999606 0.954995 -11.101338
v -10.999602 0.954995 -2.101334
v 13.000394 0.954995 -11.101348
vn 0.000000 1.000000 0.000000
usemtl color3.003
s 1
f 77//7 78//7 79//7
f 80//7 81//7 82//7
f 83//7 84//7 85//7
f 85//7 86//7 87//7
f 88//7 79//7 89//7
f 90//7 91//7 92//7
f 93//7 85//7 94//7
f 95//7 82//7 96//7
f 86//7 89//7 97//7
f 84//7 96//7 77//7
f 98//7 96//7 84//7
f 99//7 92//7 78//7
f 81//7 90//7 99//7
f 88//7 77//7 79//7
f 95//7 80//7 82//7
f 93//7 83//7 85//7
f 94//7 85//7 87//7
f 86//7 88//7 89//7
f 99//7 90//7 92//7
f 100//7 93//7 94//7
f 98//7 95//7 96//7
f 87//7 86//7 97//7
f 88//7 84//7 77//7
f 83//7 98//7 84//7
f 77//7 99//7 78//7
f 82//7 81//7 99//7
o 7.003
v 10.000399 -2.045005 0.898655
v 7.000398 -2.045005 0.898657
v 7.000400 -2.045005 6.898657
v 10.000401 -2.045005 6.898655
v 19.000401 -2.045005 6.898650
v 19.000397 -2.045005 0.898650
v 7.000398 -2.045005 -2.101343
v 10.000398 -2.045005 -2.101345
v 10.000391 -2.045002 -14.101345
v 19.000397 -2.045005 -2.101350
v 19.000393 -2.045002 -14.101350
v -16.999603 -2.045005 0.898667
v -16.999599 -2.045005 6.898667
v 7.000391 -2.045002 -14.101343
v -16.999607 -2.045002 -14.101333
v -16.999603 -2.045005 -2.101332
vn 0.000000 1.000000 0.000000
usemtl color7.003
s 1
f 101//8 102//8 103//8
f 104//8 105//8 106//8
f 107//8 108//8 109//8
f 108//8 110//8 111//8
f 108//8 101//8 106//8
f 112//8 102//8 107//8
f 113//8 103//8 102//8
f 114//8 115//8 116//8
f 104//8 101//8 103//8
f 101//8 104//8 106//8
f 114//8 107//8 109//8
f 109//8 108//8 111//8
f 110//8 108//8 106//8
f 116//8 112//8 107//8
f 112//8 113//8 102//8
f 107//8 114//8 116//8
o 1.003
v -4.999602 3.954995 0.898661
v -1.999602 3.954995 0.898659
v -1.999605 6.954995 -8.101341
v -4.999604 6.954995 -8.101339
vn 0.000000 0.948700 0.316200
usemtl color1.003
s 1
f 117//9 118//9 119//9
f 120//9 117//9 119//9
